<?xml version="1.0" encoding="iso-8859-1"?>
<!-- Generator: Adobe Illustrator 22.0.0, SVG Export Plug-In . SVG Version: 6.00 Build 0)  -->
<svg version="1.1" id="Layer_1" xmlns="http://www.w3.org/2000/svg" xmlns:xlink="http://www.w3.org/1999/xlink" x="0px" y="0px"
	 viewBox="0 0 100.25 100.25" style="enable-background:new 0 0 100.25 100.25;" xml:space="preserve">
<path d="M91.909,40.9H81.904V30.073c0-0.828-0.672-1.5-1.5-1.5H8.09c-0.828,0-1.5,0.672-1.5,1.5V70.34c0,0.828,0.672,1.5,1.5,1.5
	h72.314c0.828,0,1.5-0.672,1.5-1.5V59.513h10.005c0.828,0,1.5-0.672,1.5-1.5V42.401C93.409,41.572,92.737,40.9,91.909,40.9z
	 M78.904,67.681L41.232,31.572h37.672V67.681z M90.409,56.512h-8.505V43.9h8.505V56.512z"/>
</svg>
