<?xml version="1.0" encoding="iso-8859-1"?>
<!-- Generator: Adobe Illustrator 21.1.0, SVG Export Plug-In . SVG Version: 6.00 Build 0)  -->
<svg version="1.1" id="Layer_1" xmlns="http://www.w3.org/2000/svg" xmlns:xlink="http://www.w3.org/1999/xlink" x="0px" y="0px"
	 viewBox="0 0 94.25 100.25" style="enable-background:new 0 0 94.25 100.25;" xml:space="preserve">
<path d="M74.121,50l8.939-8.939c0.586-0.585,0.586-1.536,0-2.121c-0.586-0.586-1.535-0.586-2.121,0L72,47.879l-8.939-8.939
	c-0.586-0.586-1.535-0.586-2.121,0c-0.586,0.585-0.586,1.536,0,2.121L69.879,50l-8.939,8.939c-0.586,0.585-0.586,1.536,0,2.121
	c0.293,0.293,0.677,0.439,1.061,0.439s0.768-0.146,1.061-0.439l8.939-8.939l8.939,8.939c0.293,0.293,0.677,0.439,1.061,0.439
	s0.768-0.146,1.061-0.439c0.586-0.585,0.586-1.536,0-2.121L74.121,50z"/>
<path d="M51.191,11.659c-0.508-0.254-1.116-0.2-1.571,0.141L23.202,31.593H8.22c-0.829,0-1.5,0.671-1.5,1.5V67.06
	c0,0.829,0.671,1.5,1.5,1.5h14.985l26.419,19.644c0.264,0.196,0.579,0.296,0.895,0.296c0.23,0,0.46-0.053,0.674-0.16
	c0.506-0.255,0.826-0.773,0.826-1.34V13C52.02,12.433,51.699,11.913,51.191,11.659z M49.02,84.016l-24.423-18.16
	c-0.259-0.192-0.573-0.296-0.895-0.296H9.72V34.593h13.982c0.324,0,0.64-0.105,0.899-0.299l24.418-18.295L49.02,84.016L49.02,84.016
	z"/>
</svg>
