<?xml version="1.0" encoding="iso-8859-1"?>
<!-- Generator: Adobe Illustrator 22.0.0, SVG Export Plug-In . SVG Version: 6.00 Build 0)  -->
<svg version="1.1" id="Layer_1" xmlns="http://www.w3.org/2000/svg" xmlns:xlink="http://www.w3.org/1999/xlink" x="0px" y="0px"
	 viewBox="0 0 100.25 100.25" style="enable-background:new 0 0 100.25 100.25;" xml:space="preserve">
<g>
	<path d="M77.132,10.153H22.868c-2.822,0-5.118,2.296-5.118,5.118V84.73c0,2.821,2.296,5.117,5.118,5.117h54.265
		c2.822,0,5.118-2.296,5.118-5.117V15.271C82.25,12.449,79.954,10.153,77.132,10.153z M79.25,84.73c0,1.167-0.95,2.117-2.118,2.117
		H22.868c-1.167,0-2.118-0.95-2.118-2.117V15.271c0-1.168,0.95-2.118,2.118-2.118h54.265c1.167,0,2.118,0.95,2.118,2.118
		L79.25,84.73L79.25,84.73z"/>
	<path d="M50.362,77.132c-0.999,0-1.809,0.81-1.809,1.809s0.81,1.809,1.809,1.809c0.999,0,1.809-0.81,1.809-1.809
		C52.171,77.942,51.361,77.132,50.362,77.132z"/>
</g>
</svg>
