<?xml version="1.0" encoding="iso-8859-1"?>
<!-- Generator: Adobe Illustrator 21.1.0, SVG Export Plug-In . SVG Version: 6.00 Build 0)  -->
<svg version="1.1" id="Layer_1" xmlns="http://www.w3.org/2000/svg" xmlns:xlink="http://www.w3.org/1999/xlink" x="0px" y="0px"
	 viewBox="0 0 100.438 100.438" style="enable-background:new 0 0 100.438 100.438;" xml:space="preserve">
<g>
	<path d="M50.231,87.597c-0.01,0-0.02,0-0.029,0c-1.641,0-2.983,1.327-3,2.971c-0.016,1.654,1.317,3.012,2.972,3.029
		c0.01,0,0.02,0,0.029,0c0.79,0,1.535-0.304,2.101-0.858c0.571-0.561,0.891-1.311,0.898-2.112
		C53.218,88.973,51.885,87.614,50.231,87.597z"/>
	<path d="M51.044,3.601C50.961,3.6,50.88,3.6,50.797,3.6c-13.671,0-24.86,10.977-24.992,24.58c-0.008,0.829,0.657,1.506,1.485,1.515
		c0.005,0,0.01,0,0.015,0c0.822,0,1.492-0.662,1.5-1.485c0.116-11.96,9.961-21.609,21.992-21.609c0.072,0,0.146,0,0.218,0.001
		C63.146,6.72,72.92,16.604,72.803,28.636c-0.081,8.398-5.102,16.229-12.789,19.952c-9.455,4.578-11.501,11.998-11.554,17.415
		L48.343,78.08c-0.008,0.829,0.657,1.506,1.485,1.515c0.005,0,0.01,0,0.015,0c0.822,0,1.492-0.662,1.5-1.485l0.117-12.077
		c0.044-4.569,1.79-10.836,9.86-14.744c8.706-4.215,14.391-13.095,14.482-22.623C75.936,14.978,64.829,3.735,51.044,3.601z"/>
</g>
</svg>
