<?xml version="1.0" encoding="iso-8859-1"?>
<!-- Generator: Adobe Illustrator 22.0.0, SVG Export Plug-In . SVG Version: 6.00 Build 0)  -->
<svg version="1.1" id="Layer_1" xmlns="http://www.w3.org/2000/svg" xmlns:xlink="http://www.w3.org/1999/xlink" x="0px" y="0px"
	 viewBox="0 0 100.25 100.25" style="enable-background:new 0 0 100.25 100.25;" xml:space="preserve">
<path d="M94.048,40.702l-10.005,0.035l-0.038-10.826c-0.003-0.828-0.677-1.498-1.505-1.495l-72.313,0.253
	c-0.829,0.003-1.498,0.677-1.495,1.505l0.141,40.265c0.003,0.828,0.677,1.498,1.505,1.495l72.313-0.253
	c0.829-0.003,1.498-0.677,1.495-1.505L84.108,59.35l10.005-0.035c0.829-0.003,1.498-0.677,1.495-1.505l-0.055-15.613
	C95.551,41.368,94.877,40.699,94.048,40.702z M81.136,67.386l-36.091-35.84L81.01,31.42L81.136,67.386z M12.52,31.66l28.284-0.099
	l37.395,37.135l-28.283,0.099L12.52,31.66z M92.603,56.32l-8.505,0.03l-0.044-12.613l8.505-0.03L92.603,56.32z"/>
</svg>
