<?xml version="1.0" encoding="iso-8859-1"?>
<!-- Generator: Adobe Illustrator 22.0.0, SVG Export Plug-In . SVG Version: 6.00 Build 0)  -->
<svg version="1.1" id="Layer_1" xmlns="http://www.w3.org/2000/svg" xmlns:xlink="http://www.w3.org/1999/xlink" x="0px" y="0px"
	 viewBox="0 0 100.25 100.25" style="enable-background:new 0 0 100.25 100.25;" xml:space="preserve">
<path d="M79,36.5h-5.5V36c0-12.958-10.542-23.5-23.5-23.5S26.5,23.042,26.5,36v0.5H21c-0.828,0-1.5,0.672-1.5,1.5v48
	c0,0.828,0.672,1.5,1.5,1.5h58c0.828,0,1.5-0.672,1.5-1.5V38C80.5,37.172,79.828,36.5,79,36.5z M29.5,36
	c0-11.304,9.196-20.5,20.5-20.5S70.5,24.696,70.5,36v0.5h-41V36z M77.5,84.5h-55v-45h55V84.5z"/>
</svg>
