<?xml version="1.0" encoding="iso-8859-1"?>
<!-- Generator: Adobe Illustrator 21.1.0, SVG Export Plug-In . SVG Version: 6.00 Build 0)  -->
<svg version="1.1" id="Layer_1" xmlns="http://www.w3.org/2000/svg" xmlns:xlink="http://www.w3.org/1999/xlink" x="0px" y="0px"
	 viewBox="0 0 94.25 100.25" style="enable-background:new 0 0 94.25 100.25;" xml:space="preserve">
<g>
	<path d="M78.02,13.5H15.98c-0.829,0-1.5,0.671-1.5,1.5v20c0,0.829,0.671,1.5,1.5,1.5s1.5-0.671,1.5-1.5V16.5h59.04V35
		c0,0.829,0.671,1.5,1.5,1.5s1.5-0.671,1.5-1.5V15C79.52,14.172,78.849,13.5,78.02,13.5z"/>
	<path d="M48.093,29.973c-0.566-0.604-1.619-0.604-2.186,0l-12.22,13c-0.567,0.604-0.538,1.553,0.065,2.12
		c0.604,0.568,1.553,0.538,2.12-0.065l9.627-10.242V92c0,0.829,0.671,1.5,1.5,1.5s1.5-0.671,1.5-1.5V34.786l9.627,10.242
		c0.295,0.314,0.693,0.473,1.093,0.473c0.368,0,0.737-0.135,1.027-0.407c0.604-0.567,0.633-1.517,0.065-2.12L48.093,29.973z"/>
</g>
</svg>
