<?xml version="1.0" encoding="iso-8859-1"?>
<!-- Generator: Adobe Illustrator 22.0.0, SVG Export Plug-In . SVG Version: 6.00 Build 0)  -->
<svg version="1.1" id="Layer_1" xmlns="http://www.w3.org/2000/svg" xmlns:xlink="http://www.w3.org/1999/xlink" x="0px" y="0px"
	 viewBox="0 0 100.25 100.25" style="enable-background:new 0 0 100.25 100.25;" xml:space="preserve">
<path d="M92.909,40.694H82.905V29.868c0-0.828-0.671-1.5-1.5-1.5H9.091c-0.829,0-1.5,0.672-1.5,1.5v40.266
	c0,0.828,0.671,1.5,1.5,1.5h72.314c0.829,0,1.5-0.672,1.5-1.5V59.307h10.004c0.829,0,1.5-0.672,1.5-1.5V42.194
	C94.409,41.366,93.737,40.694,92.909,40.694z M79.904,67.334L43.938,31.368h35.966V67.334z M50.799,68.634L13.533,31.368h26.163
	l37.266,37.266H50.799z M10.59,32.667l35.967,35.967H10.59V32.667z M91.409,56.307h-8.504V43.694h8.504V56.307z"/>
</svg>
