<?xml version="1.0" encoding="iso-8859-1"?>
<!-- Generator: Adobe Illustrator 21.1.0, SVG Export Plug-In . SVG Version: 6.00 Build 0)  -->
<svg version="1.1" id="Layer_1" xmlns="http://www.w3.org/2000/svg" xmlns:xlink="http://www.w3.org/1999/xlink" x="0px" y="0px"
	 viewBox="0 0 100.25 100.25" style="enable-background:new 0 0 100.25 100.25;" xml:space="preserve">
<path d="M52.643,49.404L73.05,29.395c0.287-0.281,0.449-0.665,0.45-1.066s-0.158-0.786-0.442-1.069L51.594,5.937
	c-0.43-0.425-1.074-0.554-1.632-0.321c-0.56,0.232-0.925,0.777-0.926,1.382l-0.089,38.783L30.05,27.254
	c-0.592-0.58-1.54-0.57-2.121,0.021c-0.58,0.591-0.57,1.541,0.021,2.121l20.407,20.009L27.95,69.413
	c-0.592,0.58-0.602,1.53-0.021,2.121c0.581,0.593,1.53,0.602,2.121,0.021l18.881-18.511l-0.09,38.953
	c-0.001,0.606,0.362,1.154,0.922,1.388c0.187,0.078,0.383,0.116,0.578,0.116c0.389,0,0.771-0.151,1.058-0.436l21.659-21.518
	c0.284-0.283,0.443-0.668,0.442-1.069s-0.163-0.785-0.45-1.066L52.643,49.404z M52.028,10.597l17.836,17.72L51.947,45.884
	L52.028,10.597z M51.85,88.387l0.081-35.48L69.865,70.49L51.85,88.387z"/>
</svg>
