<?xml version="1.0" encoding="iso-8859-1"?>
<!-- Generator: Adobe Illustrator 21.1.0, SVG Export Plug-In . SVG Version: 6.00 Build 0)  -->
<svg version="1.1" id="Layer_1" xmlns="http://www.w3.org/2000/svg" xmlns:xlink="http://www.w3.org/1999/xlink" x="0px" y="0px"
	 viewBox="0 0 100.25 100.25" style="enable-background:new 0 0 100.25 100.25;" xml:space="preserve">
<g>
	<path d="M83,47.5c-0.829,0-1.5,0.672-1.5,1.5v17.5h-49v-49H50c0.829,0,1.5-0.672,1.5-1.5s-0.671-1.5-1.5-1.5H31
		c-0.829,0-1.5,0.672-1.5,1.5v13.5H17c-0.829,0-1.5,0.672-1.5,1.5v52c0,0.828,0.671,1.5,1.5,1.5h52c0.829,0,1.5-0.672,1.5-1.5V69.5
		H83c0.829,0,1.5-0.672,1.5-1.5V49C84.5,48.172,83.829,47.5,83,47.5z M67.5,81.5h-49v-49h11V68c0,0.828,0.671,1.5,1.5,1.5h36.5V81.5
		z"/>
	<path d="M83,14.5H64c-0.829,0-1.5,0.672-1.5,1.5s0.671,1.5,1.5,1.5h15.379L54.94,41.939c-0.586,0.586-0.586,1.535,0,2.121
		c0.293,0.293,0.677,0.439,1.061,0.439s0.768-0.146,1.061-0.439l24.439-24.439V35c0,0.828,0.671,1.5,1.5,1.5s1.5-0.672,1.5-1.5V16
		C84.5,15.172,83.829,14.5,83,14.5z"/>
</g>
</svg>
