<?xml version="1.0" encoding="iso-8859-1"?>
<!-- Generator: Adobe Illustrator 21.1.0, SVG Export Plug-In . SVG Version: 6.00 Build 0)  -->
<svg version="1.1" id="Layer_1" xmlns="http://www.w3.org/2000/svg" xmlns:xlink="http://www.w3.org/1999/xlink" x="0px" y="0px"
	 viewBox="0 0 100.25 100.25" style="enable-background:new 0 0 100.25 100.25;" xml:space="preserve">
<g>
	<path d="M88.853,76.777L54.048,13.21c-0.929-1.696-2.629-2.709-4.548-2.709s-3.619,1.013-4.548,2.709L10.147,76.777
		c-0.896,1.636-0.863,3.571,0.088,5.176c0.945,1.595,2.612,2.547,4.461,2.547h69.607c1.849,0,3.516-0.952,4.461-2.547
		C89.716,80.349,89.749,78.413,88.853,76.777z M86.184,80.424c-0.405,0.684-1.09,1.076-1.88,1.076H14.697
		c-0.79,0-1.475-0.392-1.88-1.076s-0.42-1.509-0.038-2.207L47.584,14.65c0.395-0.72,1.111-1.15,1.917-1.15s1.522,0.43,1.917,1.15
		l34.805,63.567C86.604,78.915,86.589,79.74,86.184,80.424z"/>
	<ellipse transform="matrix(0.0575 -0.9983 0.9983 0.0575 -22.7027 114.8793)" cx="49.492" cy="69.464" rx="2.5" ry="2.5"/>
	<path d="M49.5,59.5c0.828,0,1.5-0.671,1.5-1.5V34c0-0.829-0.672-1.5-1.5-1.5S48,33.171,48,34v24C48,58.829,48.672,59.5,49.5,59.5z"
		/>
</g>
</svg>
