<?xml version="1.0" encoding="iso-8859-1"?>
<!-- Generator: Adobe Illustrator 21.1.0, SVG Export Plug-In . SVG Version: 6.00 Build 0)  -->
<svg version="1.1" id="Layer_1" xmlns="http://www.w3.org/2000/svg" xmlns:xlink="http://www.w3.org/1999/xlink" x="0px" y="0px"
	 viewBox="0 0 100.25 100.25" style="enable-background:new 0 0 100.25 100.25;" xml:space="preserve">
<path d="M75.974,37.032c-2.375,0-4.722,0.481-6.901,1.406C67.911,26.703,57.818,17.5,45.579,17.5
	c-13.016,0-23.605,10.408-23.605,23.202c0,1.373,0.126,2.745,0.376,4.104c-0.726-0.119-1.458-0.178-2.192-0.178
	c-7.531,0-13.658,6.028-13.658,13.437s6.127,13.436,13.658,13.436h56.369c0.117,0,0.231-0.014,0.34-0.04
	C86.219,71,93.501,63.502,93.501,54.267C93.5,44.763,85.638,37.032,75.974,37.032z M76.476,68.474
	c-0.079,0.002-0.157,0.012-0.232,0.026H20.158C14.282,68.5,9.5,63.818,9.5,58.064c0-5.755,4.781-10.437,10.658-10.437
	c1.257,0,2.51,0.226,3.724,0.67c0.532,0.196,1.132,0.072,1.545-0.318c0.414-0.39,0.571-0.98,0.406-1.525
	c-0.57-1.884-0.859-3.82-0.859-5.752c0-11.14,9.244-20.202,20.605-20.202s20.605,9.062,20.606,20.152
	c-0.002,0.037-0.007,0.134-0.007,0.17c0,0.54,0.29,1.038,0.759,1.304c0.47,0.267,1.046,0.26,1.509-0.016
	c2.281-1.36,4.884-2.079,7.527-2.079c8.01,0,14.526,6.386,14.526,14.234C90.5,61.969,84.34,68.209,76.476,68.474z"/>
</svg>
