<?xml version="1.0" encoding="iso-8859-1"?>
<!-- Generator: Adobe Illustrator 22.0.0, SVG Export Plug-In . SVG Version: 6.00 Build 0)  -->
<svg version="1.1" id="Layer_1" xmlns="http://www.w3.org/2000/svg" xmlns:xlink="http://www.w3.org/1999/xlink" x="0px" y="0px"
	 viewBox="0 0 100.25 100.25" style="enable-background:new 0 0 100.25 100.25;" xml:space="preserve">
<g>
	<path d="M81.551,33.587V17.44c0-0.828-0.671-1.5-1.5-1.5H51.936V8.709c0-0.828-0.671-1.5-1.5-1.5s-1.5,0.672-1.5,1.5v7.231h-28.98
		c-0.829,0-1.5,0.672-1.5,1.5v16.115c-0.061,0.183-0.09,0.378-0.077,0.574l3.544,53.262c0.052,0.788,0.707,1.4,1.497,1.4h53.16
		c0.79,0,1.444-0.612,1.497-1.4l3.544-53.262C81.632,33.944,81.605,33.761,81.551,33.587z M78.551,18.94v13.59H21.456V18.94H78.551z
		 M75.176,85.792H24.823L21.479,35.53h57.042L75.176,85.792z"/>
	<path d="M50.436,74.822c0.829,0,1.5-0.672,1.5-1.5V48c0-0.828-0.671-1.5-1.5-1.5s-1.5,0.672-1.5,1.5v25.322
		C48.936,74.15,49.608,74.822,50.436,74.822z"/>
	<path d="M64.625,74.822c0.829,0,1.5-0.672,1.5-1.5V48c0-0.828-0.671-1.5-1.5-1.5s-1.5,0.672-1.5,1.5v25.322
		C63.125,74.15,63.796,74.822,64.625,74.822z"/>
	<path d="M36.792,74.822c0.018,0,0.035,0,0.053-0.001c0.828-0.028,1.476-0.723,1.447-1.551l-0.873-25.322
		c-0.028-0.828-0.734-1.495-1.551-1.447c-0.828,0.028-1.476,0.723-1.447,1.551l0.873,25.322
		C35.322,74.185,35.988,74.822,36.792,74.822z"/>
</g>
</svg>
